<?xml version="1.0" encoding="UTF-8"?><svg id="Layer_1" xmlns="http://www.w3.org/2000/svg" viewBox="0 0 512 512"><path d="M52.27,294.31c-15.3-10.6.6-25.6,32.2-34.2,29.6-8.1,66.7-8.7,87-1.6,20,7,49.6,11.1,81.9,11.1,35.1,0,66.1-4.7,85.7-12.7,17.9-7.2,23.1-15.9,16.7-24.1-5.7-7.3-20.2-13.5-40.1-17.8-18.5-4-40.7-6.1-63.4-6.1-25.2,0-50,2.6-69.4,7.5-19.2,4.8-49.1,5.5-64.3,1.4-14.2-3.9-8.6-10.1,10.5-14,37-7.5,80.4-11.3,122.9-11.3,38.3,0,76.8,3,111.3,9.1,39.1,6.8,72.8,17.4,93.9,31.2,26.6,17.3,31.3,38.2,3.5,58.1-35.1,25.1-111.1,41.9-206.3,41.9-87.6,0-161.4-14.7-200.3-37.2-.6-.5-1.2-.9-1.8-1.3Z" style="stroke-width:0px;"/><path d="M46.57,290.71c-13.3-9.3-19.5-18.9-19.5-28.5s26.7-20.3,58.2-24c29.9-3.5,58-.2,64.8,7.9,3.7,4.5,10.8,8.6,21.3,12.3,22.3,7.8,19.6,23.1-11.2,34.6-34.9,13.1-85.5,14.3-106.1,2.4-2.7-1.4-5.2-3-7.5-4.7Z" style="stroke-width:0px;"/><path d="M85.97,217.61l93.9,11.8c27.6,3.5,58.6-4.3,48.8-11.3l-38.1-27.6c-5.2-3.8-32.7-3.9-45.5-.2l-61,17.6c-12.3,3.5-12,8,1.9,9.7Z" style="stroke-width:0px;"/></svg>